<svg xmlns="http://www.w3.org/2000/svg" width="181" height="139" viewBox="0 0 181 139" fill="none"><path d="M66.8027 67.8562C75.0036 66.5489 83.1905 65.9127 91.8458 65.9127C97.5578 65.9127 103.535 66.2063 109.611 66.7796C113.456 67.1431 117.581 67.7654 121.832 68.5903C122.867 65.4652 123.433 62.1303 123.433 58.6626C123.433 41.2263 109.296 27.0828 91.8528 27.0828C74.4093 27.0828 60.2727 41.2193 60.2727 58.6626C60.2727 62.1793 60.86 65.5631 61.9157 68.7232C63.5167 68.4156 65.1387 68.1219 66.7957 67.8632L66.8027 67.8562Z" fill="url(#paint0_linear_339_4481)"></path><path d="M153.545 52.0069C153.398 51.902 153.23 51.8391 153.055 51.8321C152.993 51.8321 152.93 51.8321 152.867 51.8391L137.556 53.4541C137.059 53.531 136.717 53.9994 136.794 54.4958C136.835 54.7685 136.996 55.0062 137.234 55.146C137.416 55.2509 137.625 55.2928 137.835 55.2649L153.146 53.6499C153.643 53.573 153.985 53.1045 153.908 52.6082C153.873 52.3705 153.741 52.1537 153.545 52.0069Z" fill="#C5191F"></path><path d="M136.003 67.5976C135.961 67.8702 136.045 68.1429 136.227 68.3456C136.367 68.5064 136.556 68.6043 136.765 68.6393L145.686 70.6178C145.931 70.6528 146.169 70.5968 146.365 70.45C146.56 70.3032 146.693 70.0935 146.728 69.8558C146.763 69.6111 146.707 69.3734 146.56 69.1776C146.414 68.9819 146.204 68.849 145.966 68.8141L137.045 66.8355C137.003 66.8355 136.961 66.8285 136.919 66.8285C136.472 66.8285 136.073 67.1501 136.003 67.6046V67.5976Z" fill="#C5191F"></path><path d="M139.324 19.7629C139.143 19.7489 138.968 19.7909 138.814 19.8817C138.758 19.9097 138.709 19.9517 138.66 19.9936L126.677 29.6626C126.299 29.9982 126.264 30.5715 126.6 30.949C126.782 31.1518 127.04 31.2636 127.32 31.2566C127.53 31.2496 127.733 31.1657 127.886 31.0259L139.87 21.3569C140.247 21.0213 140.282 20.448 139.947 20.0705C139.786 19.8887 139.562 19.7769 139.317 19.7629H139.324Z" fill="#EC2027"></path><path d="M133.053 42.3799C133.165 42.6315 133.382 42.8133 133.647 42.8902C133.857 42.9462 134.067 42.9322 134.263 42.8413L142.834 39.6602C143.058 39.5554 143.226 39.3806 143.316 39.1499C143.4 38.9191 143.393 38.6745 143.295 38.4507C143.198 38.227 143.016 38.0592 142.785 37.9683C142.554 37.8844 142.31 37.8914 142.086 37.9893L133.514 41.1704C133.473 41.1913 133.438 41.2053 133.403 41.2333C133.025 41.471 132.864 41.9604 133.053 42.3799Z" fill="#EC2027"></path><path d="M109.877 0.389913C109.716 0.4808 109.597 0.606644 109.513 0.767445C109.485 0.823375 109.464 0.879306 109.443 0.942228L104.619 15.5681C104.486 16.0505 104.766 16.5609 105.255 16.6937C105.521 16.7706 105.801 16.7217 106.024 16.5609C106.199 16.442 106.325 16.2602 106.381 16.0575L111.205 1.43162C111.338 0.949219 111.058 0.438852 110.569 0.306017C110.331 0.243095 110.086 0.27106 109.877 0.389913Z" fill="#EC2027"></path><path d="M117.392 22.2868C117.623 22.4336 117.903 22.4755 118.168 22.3916C118.371 22.3287 118.539 22.1959 118.658 22.0211L124.132 14.7012C124.265 14.4914 124.307 14.2537 124.258 14.016C124.209 13.7783 124.069 13.5756 123.859 13.4427C123.657 13.3099 123.412 13.261 123.174 13.3169C122.936 13.3658 122.734 13.5057 122.601 13.7154L117.127 21.0353C117.106 21.0703 117.085 21.1122 117.064 21.1472C116.875 21.5527 117.008 22.0491 117.392 22.3007V22.2868Z" fill="#EC2027"></path><path d="M74.6401 0.487818C74.5562 0.648618 74.5212 0.823401 74.5422 0.998184C74.5422 1.06111 74.5632 1.12403 74.5772 1.17996L78.4644 16.0785C78.6112 16.5609 79.1286 16.8265 79.611 16.6797C79.8696 16.5958 80.0794 16.4071 80.1842 16.1484C80.2612 15.9526 80.2751 15.7359 80.2122 15.5332L76.318 0.641627C76.1712 0.159225 75.6538 -0.106445 75.1714 0.0403727C74.9407 0.110286 74.7449 0.271086 74.6331 0.487818H74.6401Z" fill="#F15A2A"></path><path d="M93.0273 15.1276C93.3 15.1137 93.5517 14.9738 93.7125 14.7501C93.8383 14.5753 93.8942 14.3726 93.8873 14.1628L93.9292 5.02517C93.9152 4.78047 93.8034 4.55675 93.6216 4.39595C93.4398 4.23515 93.2021 4.15125 92.9644 4.16523C92.7197 4.17922 92.496 4.29108 92.3352 4.47285C92.1744 4.65463 92.0905 4.89233 92.1045 5.13703L92.0625 14.2747C92.0625 14.3166 92.0695 14.3586 92.0765 14.4005C92.1674 14.841 92.5659 15.1556 93.0273 15.1276Z" fill="#F15A2A"></path><path d="M44.8777 20.0146C44.8917 20.1964 44.9616 20.3642 45.0734 20.497C45.1154 20.5459 45.1573 20.5879 45.2063 20.6298L56.5533 31.0399C56.9378 31.3615 57.5181 31.3126 57.8397 30.9281C58.0145 30.7183 58.0844 30.4387 58.0355 30.173C57.9935 29.9703 57.8887 29.7815 57.7279 29.6417L46.3808 19.2316C45.9963 18.91 45.416 18.9589 45.0944 19.3434C44.9406 19.5322 44.8637 19.7699 44.8847 20.0076L44.8777 20.0146Z" fill="#F15A2A"></path><path d="M68.1799 21.7974C68.4107 21.6506 68.5645 21.4059 68.5924 21.1332C68.6204 20.9235 68.5715 20.7137 68.4526 20.5319L64.0271 12.5339C63.8942 12.3241 63.6915 12.1843 63.4538 12.1354C63.2161 12.0864 62.9714 12.1284 62.7686 12.2612C62.5659 12.394 62.419 12.5968 62.3701 12.8345C62.3212 13.0722 62.3631 13.3169 62.496 13.5196L66.9215 21.5177C66.9425 21.5527 66.9704 21.5876 66.9984 21.6226C67.292 21.9652 67.7954 22.0421 68.1869 21.7974H68.1799Z" fill="#F15A2A"></path><path d="M30.1259 52.3355C30.2377 52.4753 30.3845 52.5802 30.5523 52.6361C30.6083 52.6571 30.6712 52.6711 30.7341 52.6781L45.9124 55.2649C46.4088 55.3278 46.8702 54.9712 46.9331 54.4678C46.9681 54.1952 46.8772 53.9225 46.6884 53.7268C46.5416 53.5729 46.3459 53.4751 46.1431 53.4541L30.9648 50.8673C30.4684 50.8044 30.007 51.1609 29.9441 51.6643C29.9161 51.909 29.979 52.1467 30.1328 52.3355H30.1259Z" fill="#F79320"></path><path d="M51.2328 42.3869C51.3447 42.1352 51.3447 41.8485 51.2189 41.6038C51.128 41.4151 50.9742 41.2613 50.7784 41.1774L42.7243 36.8567C42.5006 36.7588 42.2559 36.7449 42.0252 36.8357C41.7945 36.9196 41.6127 37.0874 41.5148 37.3112C41.4169 37.5349 41.403 37.7796 41.4869 38.0103C41.5707 38.241 41.7385 38.4228 41.9623 38.5207L50.0163 42.8413C50.0583 42.8623 50.0932 42.8763 50.1352 42.8832C50.5617 43.0091 51.0371 42.8063 51.2258 42.3869H51.2328Z" fill="#F15A2A"></path><path d="M47.2477 68.842C47.2058 68.5694 47.052 68.3317 46.8143 68.1918C46.6325 68.08 46.4227 68.038 46.213 68.073L37.1032 68.8141C36.8585 68.849 36.6488 68.9749 36.502 69.1706C36.3552 69.3664 36.2992 69.6041 36.3342 69.8488C36.3691 70.0935 36.495 70.3032 36.6907 70.45C36.8865 70.5968 37.1242 70.6528 37.3689 70.6178L46.4787 69.8767C46.5206 69.8767 46.5626 69.8628 46.6045 69.8488C47.031 69.7229 47.3176 69.2965 47.2477 68.842Z" fill="#F79320"></path><path d="M53.2814 58.6277C53.2814 62.6267 53.8896 66.4859 55.0152 70.1144C56.057 69.8697 57.1127 69.639 58.1823 69.4153C57.0987 66.0105 56.5044 62.389 56.5044 58.6277C56.5044 58.2362 56.5184 57.8516 56.5324 57.4671H53.3093C53.2954 57.8516 53.2814 58.2362 53.2814 58.6277Z" fill="#F79320"></path><path d="M53.4491 55.097H56.6791C58.413 37.6257 72.8362 23.8947 90.6013 23.2306V20.0076C71.0534 20.6717 55.19 35.8429 53.4421 55.097H53.4491Z" fill="#F15A2A"></path><path d="M93.0624 20.0006V23.2236C110.988 23.7829 125.558 37.6537 127.208 55.2858H130.438C128.774 35.8709 112.771 20.5599 93.0624 19.9936V20.0006Z" fill="#EC2027"></path><path d="M127.369 58.6277C127.369 62.3541 126.789 65.9476 125.726 69.3174C126.775 69.5411 127.83 69.7788 128.886 70.0235C129.998 66.416 130.599 62.5918 130.599 58.6207C130.599 58.2991 130.585 57.9775 130.578 57.6559H127.355C127.362 57.9775 127.376 58.2991 127.376 58.6207L127.369 58.6277Z" fill="#C5191F"></path><path d="M93.335 77.1617C124.649 77.4344 151.79 83.1253 162.815 85.789C148.189 78.3083 126.439 72.0021 109.744 70.4291C94.4117 68.9819 80.331 69.3314 66.7118 71.5057C41.6337 75.5048 22.0578 85.2716 21.89 85.3555L20.9951 85.789L22.0229 85.5373C37.4808 81.727 69.012 77.1547 91.1816 77.1547C91.9088 77.1547 92.6219 77.1547 93.335 77.1617Z" fill="#0D71BA"></path><path d="M156.104 15.4143C156.104 15.4143 160.55 14.2537 164.997 19.4063C164.997 19.4063 167.22 14.4565 173.135 14.855C173.135 14.855 169.443 12.1773 164.948 16.47C164.948 16.47 160.047 12.6807 156.104 15.4073V15.4143Z" fill="#081925"></path><path d="M7.84436 28.3972C7.84436 28.3972 12.2909 27.2366 16.7374 32.3892C16.7374 32.3892 18.9607 27.4394 24.8754 27.8379C24.8754 27.8379 21.1839 25.1602 16.6885 29.4529C16.6885 29.4529 11.7875 25.6636 7.84436 28.3902V28.3972Z" fill="#081925"></path><path d="M4.92893 93.3886V100.359H15.5698V93.3886C15.5698 92.3959 15.7935 91.6478 16.241 91.1514C16.6884 90.655 17.2757 90.4033 18.0098 90.4033C18.7439 90.4033 19.3522 90.648 19.8136 91.1444C20.275 91.6338 20.5057 92.3889 20.5057 93.3956V112.566C20.5057 113.573 20.275 114.328 19.8066 114.824C19.3452 115.32 18.7439 115.572 18.0168 115.572C17.2897 115.572 16.6814 115.32 16.241 114.817C15.8005 114.314 15.5768 113.566 15.5768 112.566V104.386H4.92893V112.566C4.92893 113.573 4.69821 114.328 4.22979 114.824C3.76836 115.32 3.1671 115.572 2.43999 115.572C1.71289 115.572 1.10464 115.32 0.664182 114.817C0.223724 114.314 0 113.566 0 112.566V93.3956C0 92.4028 0.216733 91.6548 0.65719 91.1584C1.09066 90.662 1.69192 90.4103 2.43999 90.4103C3.18807 90.4103 3.78234 90.655 4.24377 91.1514C4.7052 91.6408 4.93592 92.3959 4.93592 93.4026L4.92893 93.3886Z" fill="#0D71BA"></path><path d="M36.495 90.4033C39.0189 90.4033 41.1862 90.9137 42.99 91.9414C44.8008 92.9621 46.1711 94.4233 47.0939 96.304C48.0238 98.1916 48.4852 100.408 48.4852 102.953C48.4852 104.833 48.2335 106.546 47.7232 108.077C47.2128 109.615 46.4507 110.951 45.43 112.076C44.4092 113.202 43.1648 114.069 41.6826 114.663C40.2004 115.257 38.5015 115.558 36.5859 115.558C34.6702 115.558 32.9783 115.25 31.4752 114.635C29.972 114.02 28.7136 113.153 27.7068 112.034C26.7001 110.916 25.938 109.574 25.4276 108C24.9103 106.427 24.6586 104.729 24.6586 102.904C24.6586 101.079 24.9242 99.3172 25.4626 97.7582C26.0009 96.1991 26.777 94.8708 27.7977 93.7731C28.8184 92.6755 30.0559 91.8365 31.5171 91.2562C32.9783 90.676 34.6353 90.3823 36.495 90.3823V90.4033ZM43.5004 102.918C43.5004 101.135 43.2137 99.5899 42.6404 98.2895C42.0671 96.9821 41.2421 95.9964 40.1725 95.3252C39.1028 94.654 37.8793 94.3184 36.495 94.3184C35.5092 94.3184 34.6003 94.5072 33.7683 94.8778C32.9294 95.2483 32.2163 95.7866 31.608 96.4927C31.0067 97.1989 30.5313 98.1077 30.1818 99.2054C29.8322 100.31 29.6574 101.54 29.6574 102.918C29.6574 104.295 29.8322 105.554 30.1818 106.665C30.5313 107.777 31.0207 108.707 31.6569 109.448C32.2932 110.182 33.0203 110.734 33.8453 111.098C34.6702 111.461 35.5721 111.643 36.5579 111.643C37.8164 111.643 38.9769 111.328 40.0326 110.699C41.0883 110.07 41.9273 109.098 42.5565 107.777C43.1787 106.462 43.4934 104.84 43.4934 102.911L43.5004 102.918Z" fill="#0D71BA"></path><path d="M59.3289 104.742H57.602V112.559C57.602 113.587 57.3783 114.349 56.9239 114.831C56.4694 115.313 55.8752 115.558 55.148 115.558C54.365 115.558 53.7568 115.306 53.3233 114.796C52.8898 114.286 52.6731 113.538 52.6731 112.559V93.836C52.6731 92.7733 52.9108 92.0043 53.3862 91.5289C53.8616 91.0535 54.6307 90.8158 55.6934 90.8158H63.7125C64.8171 90.8158 65.768 90.8647 66.551 90.9556C67.334 91.0465 68.0472 91.2422 68.6764 91.5289C69.4384 91.8505 70.1166 92.3119 70.7039 92.9062C71.2912 93.5004 71.7386 94.1996 72.0392 94.9896C72.3469 95.7796 72.4937 96.6186 72.4937 97.5065C72.4937 99.3242 71.9833 100.771 70.9556 101.855C69.9348 102.939 68.3827 103.708 66.2993 104.162C67.1732 104.624 68.0122 105.316 68.8022 106.218C69.5992 107.127 70.3124 108.091 70.9346 109.112C71.5568 110.133 72.0462 111.063 72.3958 111.881C72.7454 112.706 72.9202 113.272 72.9202 113.58C72.9202 113.887 72.8153 114.216 72.6125 114.53C72.4098 114.845 72.1301 115.097 71.7736 115.278C71.417 115.46 71.0115 115.551 70.5431 115.551C69.9908 115.551 69.5223 115.418 69.1518 115.16C68.7743 114.901 68.4527 114.572 68.18 114.174C67.9073 113.775 67.5438 113.188 67.0754 112.412L65.1038 109.126C64.3977 107.924 63.7614 107.001 63.2021 106.371C62.6428 105.742 62.0765 105.309 61.5032 105.078C60.9299 104.847 60.2028 104.729 59.3289 104.729V104.742ZM62.1534 94.5212H57.609V101.212H62.0206C63.2021 101.212 64.2019 101.107 65.0059 100.904C65.8169 100.702 66.4321 100.352 66.8586 99.8556C67.2851 99.3662 67.4948 98.688 67.4948 97.8211C67.4948 97.1429 67.3201 96.5487 66.9775 96.0383C66.6349 95.5209 66.1595 95.1364 65.5512 94.8847C64.9779 94.64 63.8453 94.5212 62.1464 94.5212H62.1534Z" fill="#0D71BA"></path><path d="M77.3527 112.559V93.3886C77.3527 92.3959 77.5764 91.6478 78.0308 91.1514C78.4853 90.655 79.0725 90.4033 79.7927 90.4033C80.5128 90.4033 81.135 90.648 81.5964 91.1444C82.0579 91.6338 82.2886 92.3889 82.2886 93.3956V112.566C82.2886 113.573 82.0579 114.328 81.5964 114.824C81.135 115.32 80.5337 115.572 79.7927 115.572C79.0516 115.572 78.4992 115.32 78.0448 114.817C77.5834 114.314 77.3527 113.566 77.3527 112.566V112.559Z" fill="#0D71BA"></path><path d="M87.1477 109.469L99.6413 94.5142H88.9025C88.1475 94.5142 87.5812 94.3464 87.2036 94.0178C86.8191 93.6892 86.6303 93.2488 86.6303 92.7034C86.6303 92.1581 86.8191 91.6827 87.2036 91.3331C87.5881 90.9836 88.1544 90.8088 88.9025 90.8088H102.745C104.535 90.8088 105.437 91.6407 105.437 93.3117C105.437 94.1087 105.29 94.7449 104.99 95.2203C104.689 95.6957 104.088 96.4648 103.179 97.5274L91.4963 111.433H104.374C105.137 111.433 105.71 111.594 106.087 111.909C106.465 112.223 106.654 112.664 106.654 113.23C106.654 113.796 106.465 114.279 106.087 114.621C105.71 114.964 105.144 115.139 104.374 115.139H88.5739C87.4973 115.139 86.6932 114.901 86.1479 114.418C85.6026 113.936 85.3369 113.293 85.3369 112.482C85.3369 112.202 85.3789 111.951 85.4698 111.72C85.5606 111.489 85.6795 111.272 85.8263 111.063C85.9731 110.86 86.1829 110.601 86.4485 110.28C86.7142 109.965 86.9449 109.692 87.1477 109.455V109.469Z" fill="#0D71BA"></path><path d="M120.455 90.4033C122.978 90.4033 125.146 90.9137 126.95 91.9414C128.76 92.9621 130.131 94.4233 131.06 96.304C131.99 98.1916 132.452 100.408 132.452 102.953C132.452 104.833 132.2 106.546 131.69 108.077C131.179 109.615 130.417 110.951 129.397 112.076C128.376 113.202 127.131 114.069 125.649 114.663C124.167 115.257 122.468 115.558 120.552 115.558C118.637 115.558 116.945 115.25 115.442 114.635C113.939 114.02 112.68 113.153 111.673 112.034C110.667 110.916 109.905 109.574 109.394 108C108.884 106.427 108.625 104.729 108.625 102.904C108.625 101.079 108.891 99.3172 109.429 97.7582C109.967 96.1991 110.744 94.8708 111.764 93.7731C112.785 92.6755 114.022 91.8365 115.484 91.2562C116.945 90.676 118.602 90.3823 120.462 90.3823L120.455 90.4033ZM127.46 102.918C127.46 101.135 127.173 99.5899 126.6 98.2895C126.027 96.9821 125.202 95.9964 124.132 95.3252C123.062 94.654 121.839 94.3184 120.455 94.3184C119.469 94.3184 118.56 94.5072 117.728 94.8778C116.889 95.2483 116.176 95.7866 115.568 96.4927C114.966 97.1989 114.491 98.1077 114.141 99.2054C113.792 100.31 113.617 101.54 113.617 102.918C113.617 104.295 113.792 105.554 114.141 106.665C114.491 107.784 114.98 108.707 115.617 109.448C116.253 110.182 116.98 110.734 117.805 111.098C118.63 111.461 119.532 111.643 120.517 111.643C121.776 111.643 122.936 111.328 123.992 110.699C125.048 110.07 125.887 109.098 126.516 107.777C127.138 106.462 127.453 104.84 127.453 102.911L127.46 102.918Z" fill="#0D71BA"></path><path d="M143.093 93.3536L152.566 107.693V93.2208C152.566 92.284 152.769 91.5778 153.174 91.1024C153.58 90.634 154.125 90.3963 154.81 90.3963C155.495 90.3963 156.076 90.634 156.488 91.1024C156.901 91.5709 157.103 92.277 157.103 93.2208V112.356C157.103 114.488 156.216 115.558 154.447 115.558C154.006 115.558 153.608 115.495 153.251 115.369C152.895 115.243 152.566 115.041 152.258 114.761C151.951 114.481 151.664 114.16 151.398 113.789C151.133 113.419 150.867 113.041 150.601 112.65L141.359 98.4783V112.734C141.359 113.663 141.142 114.363 140.709 114.838C140.275 115.313 139.723 115.551 139.052 115.551C138.38 115.551 137.793 115.313 137.374 114.831C136.954 114.349 136.745 113.649 136.745 112.734V93.9619C136.745 93.1649 136.835 92.5426 137.01 92.0882C137.22 91.5918 137.569 91.1863 138.059 90.8647C138.548 90.5501 139.073 90.3893 139.639 90.3893C140.079 90.3893 140.464 90.4592 140.779 90.6061C141.093 90.7529 141.373 90.9416 141.611 91.1863C141.848 91.431 142.093 91.7456 142.338 92.1302C142.589 92.5147 142.841 92.9202 143.107 93.3397L143.093 93.3536Z" fill="#0D71BA"></path><path d="M180.979 107.84C180.979 109.315 180.602 110.636 179.839 111.804C179.084 112.978 177.973 113.894 176.512 114.558C175.05 115.223 173.316 115.551 171.317 115.551C168.919 115.551 166.933 115.097 165.374 114.188C164.27 113.538 163.368 112.664 162.676 111.573C161.983 110.482 161.641 109.427 161.641 108.392C161.641 107.798 161.851 107.28 162.263 106.854C162.676 106.427 163.207 106.218 163.85 106.218C164.368 106.218 164.808 106.385 165.172 106.714C165.528 107.043 165.836 107.539 166.094 108.189C166.402 108.965 166.738 109.608 167.101 110.133C167.458 110.65 167.968 111.084 168.618 111.419C169.268 111.755 170.128 111.923 171.191 111.923C172.652 111.923 173.841 111.58 174.75 110.902C175.666 110.224 176.12 109.371 176.12 108.357C176.12 107.553 175.875 106.896 175.379 106.392C174.89 105.889 174.253 105.505 173.47 105.239C172.687 104.973 171.646 104.694 170.345 104.393C168.597 103.987 167.136 103.505 165.955 102.96C164.773 102.414 163.843 101.666 163.151 100.722C162.459 99.7787 162.116 98.6041 162.116 97.1989C162.116 95.7936 162.48 94.668 163.214 93.6333C163.941 92.5916 165.004 91.7946 166.381 91.2353C167.765 90.676 169.387 90.3963 171.261 90.3963C172.757 90.3963 174.044 90.5851 175.134 90.9556C176.225 91.3261 177.127 91.8155 177.847 92.4308C178.567 93.046 179.091 93.6892 179.427 94.3674C179.756 95.0455 179.923 95.7027 179.923 96.3389C179.923 96.9262 179.714 97.4506 179.301 97.926C178.889 98.3944 178.371 98.6321 177.749 98.6321C177.183 98.6321 176.756 98.4923 176.463 98.2056C176.169 97.926 175.854 97.4645 175.512 96.8213C175.071 95.9055 174.54 95.1854 173.918 94.675C173.296 94.1576 172.303 93.906 170.932 93.906C169.66 93.906 168.632 94.1856 167.856 94.7449C167.073 95.3042 166.689 95.9754 166.689 96.7584C166.689 97.2478 166.821 97.6673 167.087 98.0168C167.353 98.3734 167.716 98.674 168.185 98.9327C168.646 99.1844 169.122 99.3871 169.597 99.527C170.072 99.6738 170.856 99.8835 171.953 100.156C173.323 100.478 174.568 100.834 175.68 101.219C176.791 101.603 177.735 102.079 178.518 102.631C179.301 103.183 179.909 103.883 180.343 104.729C180.783 105.574 181 106.609 181 107.84H180.979Z" fill="#0D71BA"></path><path d="M95.3415 130.499C94.9221 130.345 94.1111 130.1 94.1111 130.1C94.1111 130.1 94.5655 129.946 95.3346 129.513C96.9216 128.611 97.425 127.366 97.425 125.849C97.425 125.409 97.3551 124.989 97.2082 124.591C97.0684 124.199 96.8517 123.836 96.579 123.507C96.3064 123.179 95.9778 122.906 95.6212 122.689C95.1947 122.431 94.6983 122.249 94.16 122.158C93.5517 122.053 92.8176 122.004 91.9787 122.004H85.9172C85.3648 122.004 84.9593 122.109 84.7706 122.298C84.5818 122.486 84.4769 122.899 84.4769 123.472V137.532C84.4769 138.091 84.5818 138.511 84.7706 138.706C84.9523 138.895 85.3578 138.993 85.9172 138.993H91.6361C92.5799 138.993 93.4119 138.944 94.1111 138.853C94.7752 138.769 95.3625 138.615 95.8589 138.406C96.6 138.084 97.1943 137.567 97.6347 136.882C98.0752 136.189 98.3059 135.392 98.3059 134.519C98.3059 132.631 97.425 131.254 95.3415 130.499ZM86.5534 123.263H90.5664C92.1185 123.263 93.2581 123.43 94.0691 123.78C95.0759 124.213 95.6072 125.094 95.6072 126.318C95.6072 126.884 95.4534 127.408 95.1598 127.877C94.7822 128.52 94.2159 128.974 93.4888 129.205C92.8666 129.408 92.0416 129.506 90.9719 129.506H86.5534V123.263ZM91.5452 137.679H86.5534V130.925H91.4194C92.9155 130.925 94.0901 131.17 94.9011 131.652C95.8379 132.211 96.3133 133.085 96.3133 134.267C96.3133 135.826 95.4884 137.679 91.5522 137.679H91.5452Z" fill="#081925"></path><path d="M78.4573 136.525L73.5704 124.891C73.3396 124.304 73.1509 123.843 73.004 123.5C72.8782 123.207 72.7244 122.934 72.5426 122.675C72.4028 122.479 72.207 122.312 71.9693 122.179C71.7456 122.06 71.445 121.997 71.0744 121.997C70.7039 121.997 70.4102 122.06 70.1865 122.179C69.9558 122.305 69.76 122.472 69.6202 122.675C69.4384 122.934 69.2637 123.276 69.0959 123.689L68.6065 124.898L63.8244 136.609C63.6356 137.056 63.5028 137.406 63.4259 137.651C63.3699 137.832 63.335 138.007 63.335 138.168C63.335 138.364 63.4189 138.532 63.6146 138.713C63.8244 138.902 64.0271 138.993 64.2858 138.993C64.5585 138.993 64.7402 138.944 64.8101 138.846C64.943 138.671 66.6838 134.379 66.6838 134.379H75.472L76.5766 137.168C76.6885 137.427 76.8283 137.742 76.9891 138.098C77.1639 138.49 77.2828 138.657 77.3387 138.727C77.4086 138.811 77.4855 138.867 77.5904 138.923C77.6813 138.965 77.8141 138.986 77.9679 138.986C78.2476 138.986 78.4643 138.902 78.6671 138.706C78.8628 138.518 78.9607 138.336 78.9607 138.14C78.9607 138.007 78.9118 137.588 78.4503 136.525H78.4573ZM67.2292 132.945L70.7179 123.745C70.7668 123.619 70.8927 123.535 71.0395 123.528C71.1863 123.528 71.3121 123.612 71.3611 123.738L74.9197 132.938H67.2292V132.945Z" fill="#081925"></path><path d="M117.141 136.539L112.254 124.898C112.023 124.311 111.834 123.85 111.687 123.507C111.562 123.214 111.408 122.941 111.226 122.682C111.086 122.486 110.89 122.319 110.653 122.186C110.429 122.067 110.128 122.004 109.758 122.004C109.387 122.004 109.094 122.067 108.87 122.186C108.632 122.312 108.443 122.48 108.304 122.682C108.122 122.941 107.947 123.284 107.779 123.696L107.29 124.905L102.508 136.616C102.319 137.063 102.186 137.413 102.109 137.658C102.053 137.839 102.018 138.014 102.018 138.175C102.018 138.371 102.102 138.539 102.298 138.72C102.508 138.909 102.71 139 102.969 139C103.242 139 103.424 138.951 103.493 138.853C103.626 138.678 105.367 134.386 105.367 134.386H114.155L115.26 137.175C115.372 137.434 115.512 137.749 115.672 138.105C115.847 138.497 115.966 138.664 116.022 138.734C116.092 138.818 116.169 138.874 116.274 138.93C116.365 138.972 116.497 138.993 116.651 138.993C116.931 138.993 117.148 138.909 117.35 138.713C117.546 138.525 117.644 138.343 117.644 138.147C117.644 138.014 117.595 137.595 117.134 136.532L117.141 136.539ZM105.913 132.959L109.401 123.759C109.45 123.633 109.576 123.549 109.723 123.542C109.87 123.542 109.995 123.626 110.044 123.752L113.603 132.953H105.913V132.959Z" fill="#081925"></path><defs><linearGradient id="paint0_linear_339_4481" x1="91.8528" y1="22.0491" x2="91.8528" y2="56.5023" gradientUnits="userSpaceOnUse"><stop stop-color="#FFCE3A"></stop><stop offset="0.73" stop-color="#F89621"></stop><stop offset="0.99" stop-color="#F05A26"></stop></linearGradient></defs></svg>